<?xml version="1.0" encoding="UTF-8" standalone="no"?>
<!-- Created with Inkscape (http://www.inkscape.org/) -->

<svg
   xmlns:dc="http://purl.org/dc/elements/1.1/"
   xmlns:cc="http://creativecommons.org/ns#"
   xmlns:rdf="http://www.w3.org/1999/02/22-rdf-syntax-ns#"
   xmlns:svg="http://www.w3.org/2000/svg"
   xmlns="http://www.w3.org/2000/svg"
   xmlns:sodipodi="http://sodipodi.sourceforge.net/DTD/sodipodi-0.dtd"
   xmlns:inkscape="http://www.inkscape.org/namespaces/inkscape"
   width="717.13403mm"
   height="153.1179mm"
   viewBox="0 0 717.13403 153.1179"
   version="1.1"
   id="svg347"
   inkscape:version="0.92.4 (5da689c313, 2019-01-14)"
   sodipodi:docname="Microsoft (1).svg">
  <defs
     id="defs341">
    <clipPath
       id="clipPath365"
       clipPathUnits="userSpaceOnUse">
      <path
         inkscape:connector-curvature="0"
         id="path363"
         d="M 0,859 H 2559 V 0 H 0 Z" />
    </clipPath>
  </defs>
  <sodipodi:namedview
     id="base"
     pagecolor="#ffffff"
     bordercolor="#666666"
     borderopacity="1.0"
     inkscape:pageopacity="0.0"
     inkscape:pageshadow="2"
     inkscape:zoom="0.35"
     inkscape:cx="-407.64317"
     inkscape:cy="1429.3567"
     inkscape:document-units="mm"
     inkscape:current-layer="layer1"
     showgrid="false"
     inkscape:window-width="3240"
     inkscape:window-height="2035"
     inkscape:window-x="-13"
     inkscape:window-y="-13"
     inkscape:window-maximized="1" />
  <metadata
     id="metadata344">
    <rdf:RDF>
      <cc:Work
         rdf:about="">
        <dc:format>image/svg+xml</dc:format>
        <dc:type
           rdf:resource="http://purl.org/dc/dcmitype/StillImage" />
        <dc:title></dc:title>
      </cc:Work>
    </rdf:RDF>
  </metadata>
  <g
     inkscape:label="Layer 1"
     inkscape:groupmode="layer"
     id="layer1"
     transform="translate(-107.09964,-373.89939)">
    <g
       transform="matrix(0.35277777,0,0,-0.35277777,-1.4137466,607.44815)"
       inkscape:label="Microsoft (1)"
       id="g357">
      <g
         id="g359">
        <g
           clip-path="url(#clipPath365)"
           id="g361">
          <g
             transform="translate(1025.1255,411.9502)"
             id="g367">
            <path
               inkscape:connector-curvature="0"
               id="path369"
               style="fill:#6d6f71;fill-opacity:1;fill-rule:nonzero;stroke:none"
               d="m 0,0 -12.184,-34.131 h -0.689 c -2.174,7.99 -5.82,19.353 -11.557,33.747 L -89.668,163.227 H -153.41 V -96.887 h 42.078 V 63.001 c 0,9.847 -0.221,21.811 -0.666,35.43 -0.189,6.919 -0.961,12.463 -1.186,16.654 h 0.942 c 2.151,-9.79 4.358,-17.231 5.957,-22.221 L -28.07,-96.887 H 1.356 L 78.962,94.544 c 1.742,4.385 3.618,12.904 5.328,20.541 H 85.2 C 84.18,96.17 83.321,78.855 83.218,68.406 V -96.887 h 44.88 V 163.227 H 66.834 Z" />
          </g>
          <path
             inkscape:connector-curvature="0"
             id="path371"
             style="fill:#6d6f71;fill-opacity:1;fill-rule:nonzero;stroke:none"
             d="m 1195.439,315.063 h 43.839 v 186.384 h -43.839 z" />
          <g
             transform="translate(1217.7964,580.6621)"
             id="g373">
            <path
               inkscape:connector-curvature="0"
               id="path375"
               style="fill:#6d6f71;fill-opacity:1;fill-rule:nonzero;stroke:none"
               d="m 0,0 c -7.226,0 -13.476,-2.455 -18.693,-7.305 -5.158,-4.908 -7.801,-11.031 -7.801,-18.305 0,-7.144 2.592,-13.153 7.715,-17.926 5.138,-4.742 11.45,-7.14 18.779,-7.14 7.365,0 13.672,2.398 18.866,7.14 5.213,4.773 7.821,10.782 7.821,17.926 0,6.999 -2.557,13.064 -7.608,18.086 C 14.007,-2.537 7.612,0 0,0" />
          </g>
          <g
             transform="translate(1394.5049,503.3242)"
             id="g377">
            <path
               inkscape:connector-curvature="0"
               id="path379"
               style="fill:#6d6f71;fill-opacity:1;fill-rule:nonzero;stroke:none"
               d="m 0,0 c -8.46,1.737 -16.683,2.62 -24.508,2.62 -20.128,0 -38.075,-4.332 -53.324,-12.819 -15.3,-8.525 -27.133,-20.682 -35.163,-36.179 -8.01,-15.409 -12.101,-33.415 -12.101,-53.543 0,-17.594 3.973,-33.75 11.746,-48.002 7.806,-14.284 18.839,-25.448 32.816,-33.169 13.979,-7.745 30.106,-11.663 47.949,-11.663 20.839,0 38.629,4.16 52.881,12.38 l 0.549,0.357 v 40.147 l -1.818,-1.354 c -6.478,-4.685 -13.703,-8.435 -21.478,-11.167 -7.723,-2.702 -14.779,-4.05 -20.982,-4.05 -17.207,0 -31.017,5.349 -41.026,15.993 -10.063,10.639 -15.138,25.53 -15.138,44.305 0,18.886 5.295,34.216 15.741,45.493 10.453,11.278 24.296,16.985 41.137,16.985 14.448,0 28.483,-4.881 41.746,-14.532 l 1.818,-1.319 v 42.294 l -0.549,0.36 C 15.272,-4.082 8.471,-1.763 0,0" />
          </g>
          <g
             transform="translate(1538.958,504.7031)"
             id="g381">
            <path
               inkscape:connector-curvature="0"
               id="path383"
               style="fill:#6d6f71;fill-opacity:1;fill-rule:nonzero;stroke:none"
               d="m 0,0 c -11.001,0 -20.872,-3.53 -29.344,-10.531 -7.384,-6.121 -12.759,-14.531 -16.844,-24.98 h -0.464 v 32.255 h -43.84 V -189.64 h 43.84 v 95.344 c 0,16.214 3.667,29.559 10.942,39.592 7.147,9.926 16.682,14.998 28.349,14.998 3.94,0 8.373,-0.689 13.176,-1.954 4.745,-1.27 8.189,-2.677 10.229,-4.166 l 1.816,-1.324 v 44.227 l -0.716,0.279 C 13.093,-0.883 7.305,0 0,0" />
          </g>
          <g
             transform="translate(1692.8916,362.4307)"
             id="g385">
            <path
               inkscape:connector-curvature="0"
               id="path387"
               style="fill:#6d6f71;fill-opacity:1;fill-rule:nonzero;stroke:none"
               d="m 0,0 c -8.247,-10.339 -20.628,-15.549 -36.834,-15.549 -16.107,0 -28.814,5.324 -37.747,15.825 -9.023,10.59 -13.598,25.671 -13.598,44.831 0,19.742 4.575,35.239 13.598,45.99 8.933,10.699 21.526,16.103 37.39,16.103 15.374,0 27.616,-5.181 36.383,-15.387 C 8.05,81.53 12.515,66.173 12.515,46.182 12.515,25.947 8.294,10.425 0,0 m -34.884,143.514 c -30.71,0 -55.116,-9.018 -72.508,-26.775 -17.435,-17.756 -26.23,-42.349 -26.23,-73.064 0,-29.198 8.605,-52.66 25.592,-69.756 16.982,-17.097 40.092,-25.78 68.686,-25.78 29.769,0 53.71,9.125 71.107,27.131 17.396,18.005 26.19,42.351 26.19,72.374 0,29.611 -8.27,53.295 -24.567,70.256 -16.322,16.981 -39.292,25.614 -68.27,25.614" />
          </g>
          <g
             transform="translate(1848.0908,424.4414)"
             id="g389">
            <path
               inkscape:connector-curvature="0"
               id="path391"
               style="fill:#6d6f71;fill-opacity:1;fill-rule:nonzero;stroke:none"
               d="m 0,0 c -13.842,5.542 -22.665,10.175 -26.306,13.701 -3.525,3.42 -5.319,8.22 -5.319,14.337 0,5.406 2.211,9.765 6.75,13.293 4.551,3.528 10.898,5.291 18.866,5.291 7.387,0 14.996,-1.156 22.499,-3.419 7.498,-2.314 14.118,-5.375 19.631,-9.125 l 1.812,-1.21 v 40.5 l -0.713,0.331 c -5.075,2.151 -11.774,4.028 -19.903,5.543 -8.14,1.515 -15.468,2.261 -21.896,2.261 -20.899,0 -38.192,-5.379 -51.397,-15.912 -13.291,-10.584 -20.011,-24.484 -20.011,-41.356 0,-8.739 1.429,-16.488 4.306,-23.077 2.883,-6.62 7.325,-12.435 13.278,-17.345 5.792,-4.825 14.919,-9.895 26.944,-15.053 10.122,-4.19 17.64,-7.693 22.472,-10.479 4.688,-2.727 7.963,-5.457 9.869,-8.104 1.79,-2.589 2.731,-6.179 2.731,-10.589 0,-12.513 -9.378,-18.583 -28.641,-18.583 -7.175,0 -15.34,1.462 -24.325,4.413 -8.904,2.949 -17.253,7.168 -24.81,12.6 l -1.824,1.353 v -42.767 l 0.661,-0.3 c 6.262,-2.87 14.177,-5.351 23.518,-7.281 9.344,-1.904 17.781,-2.895 25.117,-2.895 22.723,0 40.978,5.375 54.324,15.964 13.392,10.699 20.205,24.924 20.205,42.351 0,12.572 -3.664,23.328 -10.863,32.038 C 29.78,-14.914 17.368,-6.978 0,0" />
          </g>
          <g
             transform="translate(2048.6465,362.4307)"
             id="g393">
            <path
               inkscape:connector-curvature="0"
               id="path395"
               style="fill:#6d6f71;fill-opacity:1;fill-rule:nonzero;stroke:none"
               d="m 0,0 c -8.216,-10.339 -20.619,-15.549 -36.838,-15.549 -16.064,0 -28.784,5.324 -37.739,15.825 -8.988,10.59 -13.568,25.671 -13.568,44.831 0,19.742 4.58,35.239 13.568,45.99 8.955,10.699 21.556,16.103 37.407,16.103 15.364,0 27.633,-5.181 36.4,-15.387 C 8.076,81.53 12.518,66.173 12.518,46.182 12.518,25.947 8.333,10.425 0,0 m -34.857,143.514 c -30.738,0 -55.139,-9.018 -72.563,-26.775 -17.369,-17.756 -26.186,-42.349 -26.186,-73.064 0,-29.198 8.625,-52.66 25.615,-69.756 16.947,-17.097 40.056,-25.78 68.651,-25.78 29.803,0 53.733,9.125 71.125,27.131 17.401,18.005 26.207,42.351 26.207,72.374 0,29.611 -8.278,53.295 -24.607,70.256 -16.321,16.981 -39.287,25.614 -68.242,25.614" />
          </g>
          <g
             transform="translate(2340.418,465.7148)"
             id="g397">
            <path
               inkscape:connector-curvature="0"
               id="path399"
               style="fill:#6d6f71;fill-opacity:1;fill-rule:nonzero;stroke:none"
               d="m 0,0 v 35.732 h -44.418 v 55.587 l -1.494,-0.44 -41.716,-12.766 -0.8,-0.248 V 35.732 h -65.786 v 23.466 c 0,10.917 2.455,19.274 7.275,24.871 4.779,5.487 11.615,8.299 20.324,8.299 6.288,0 12.769,-1.489 19.298,-4.386 l 1.624,-0.741 v 37.661 l -0.742,0.277 c -6.12,2.203 -14.393,3.309 -24.641,3.309 -12.963,0 -24.766,-2.842 -34.998,-8.385 -10.276,-5.597 -18.358,-13.594 -24.067,-23.767 -5.571,-10.144 -8.487,-21.838 -8.487,-34.793 V 35.732 h -30.88 V 0 h 30.88 v -150.651 h 44.414 V 0 h 65.786 v -95.729 c 0,-39.426 18.61,-59.389 55.286,-59.389 6.001,0 12.345,0.69 18.823,2.096 6.596,1.378 11.085,2.811 13.705,4.327 L 0,-148.339 v 36.094 l -1.828,-1.213 c -2.393,-1.625 -5.371,-2.895 -8.897,-3.886 -3.531,-0.996 -6.505,-1.489 -8.771,-1.489 -8.602,0 -14.949,2.315 -18.914,6.864 -3.977,4.608 -6.008,12.685 -6.008,23.959 V 0 Z" />
          </g>
          <path
             inkscape:connector-curvature="0"
             id="path401"
             style="fill:#f26521;fill-opacity:1;fill-rule:nonzero;stroke:none"
             d="M 513.838,455.789 H 307.597 v 206.239 h 206.241 z" />
          <path
             inkscape:connector-curvature="0"
             id="path403"
             style="fill:#8cc63f;fill-opacity:1;fill-rule:nonzero;stroke:none"
             d="M 741.549,455.789 H 535.313 v 206.239 h 206.236 z" />
          <path
             inkscape:connector-curvature="0"
             id="path405"
             style="fill:#00aeef;fill-opacity:1;fill-rule:nonzero;stroke:none"
             d="M 513.838,227.993 H 307.597 v 206.233 h 206.241 z" />
          <path
             inkscape:connector-curvature="0"
             id="path407"
             style="fill:#ffc20d;fill-opacity:1;fill-rule:nonzero;stroke:none"
             d="M 741.549,227.993 H 535.313 v 206.233 h 206.236 z" />
        </g>
      </g>
    </g>
  </g>
</svg>
